<?xml version="1.0" encoding="iso-8859-1"?>
<!-- Generator: Adobe Illustrator 19.0.0, SVG Export Plug-In . SVG Version: 6.00 Build 0)  -->
<svg version="1.1" id="Layer_1" xmlns="http://www.w3.org/2000/svg" xmlns:xlink="http://www.w3.org/1999/xlink" x="0px" y="0px"
	 viewBox="0 0 504.366 504.366" style="enable-background:new 0 0 504.366 504.366;" xml:space="preserve">
<g transform="translate(1 1)">
	<path style="fill:#FFE100;" d="M162.784,477.594V74.591c0-9.277,7.523-16.792,16.792-16.792h162.645l-13.215-37.924
		c-2.401-8.958-11.603-14.273-20.562-11.872L24.596,72.676c-8.958,2.401-14.273,11.603-11.872,20.562l104.311,389.276
		c2.393,8.958,11.603,14.273,20.562,11.872l28-7.506C163.825,484.218,162.784,481.027,162.784,477.594"/>
	<path style="fill:#FFA800;" d="M473.432,57.799H322.306c-9.277,0-16.792,7.514-16.792,16.792v403.003
		c0,9.277,7.514,16.792,16.792,16.792h151.126c9.277,0,16.792-7.514,16.792-16.792V74.591
		C490.224,65.313,482.71,57.799,473.432,57.799"/>
	<path style="fill:#FFFFFF;" d="M330.702,57.799H179.576c-9.277,0-16.792,7.514-16.792,16.792v403.003
		c0,9.277,7.514,16.792,16.792,16.792h151.126c9.277,0,16.792-7.514,16.792-16.792V74.591
		C347.494,65.313,339.98,57.799,330.702,57.799"/>
	<path style="fill:#FFE100;" d="M448.245,57.799H204.764c-9.277,0-16.792,7.514-16.792,16.792v403.003
		c0,9.277,7.514,16.792,16.792,16.792h243.481c9.277,0,16.792-7.514,16.792-16.792V74.591
		C465.036,65.313,457.522,57.799,448.245,57.799"/>
	<path style="fill:#FFA800;" d="M347.521,335.144c-0.479-0.311-1.033,0.16-0.823,0.697l13.92,35.641
		c1.226,2.46-0.563,5.365-3.316,5.365h-62.096c-2.754,0-4.542-2.905-3.308-5.365l11.595-35.725c0.176-0.537-0.403-0.966-0.865-0.655
		c-6.994,4.727-14.97,8.278-23.702,8.278c-27.085,0-50.585-22.745-48.889-50.174c0.957-15.423,10.772-28.655,23.861-36.866
		c13.131-8.236,23.937-8.891,34.826-6.255c-6.96-8.245-9.798-18.882-9.798-30.511c0-29.453,26.9-52.625,57.47-46.287
		c18.211,3.778,32.803,18.689,36.304,36.95c2.913,15.222,0.378,29.444-8.413,39.847c10.965-2.661,21.376-1.973,34.616,6.44
		c13.022,8.262,22.803,21.46,23.702,36.858c1.587,27.354-21.989,49.998-49.007,49.998
		C365.018,343.38,354.699,339.762,347.521,335.144"/>
	<path d="M473.43,502.784H179.578c-13.889,0-25.188-11.298-25.188-25.188V74.593c0-13.889,11.298-25.188,25.188-25.188H473.43
		c13.889,0,25.188,11.298,25.188,25.188v83.959c0,4.637-3.755,8.396-8.396,8.396s-8.396-3.759-8.396-8.396V74.593
		c0-4.628-3.763-8.396-8.396-8.396H179.578c-4.628,0-8.396,3.767-8.396,8.396v403.003c0,4.632,3.768,8.396,8.396,8.396H473.43
		c4.633,0,8.396-3.763,8.396-8.396V225.719c0-4.637,3.755-8.396,8.396-8.396s8.396,3.759,8.396,8.396v251.877
		C498.618,491.485,487.319,502.784,473.43,502.784z"/>
	<path d="M498.62,192.133c0,4.635-3.761,8.396-8.396,8.396s-8.396-3.761-8.396-8.396s3.761-8.396,8.396-8.396
		S498.62,187.499,498.62,192.133"/>
	<path d="M456.638,351.149c-4.641,0-8.396-3.755-8.396-8.396V99.781h-142.73c-4.641,0-8.396-3.759-8.396-8.396
		s3.755-8.396,8.396-8.396h151.126c4.641,0,8.396,3.759,8.396,8.396v251.369C465.034,347.394,461.279,351.149,456.638,351.149z"/>
	<path d="M196.369,469.676c-2.222,0-4.354-0.877-5.928-2.452c-1.578-1.574-2.468-3.714-2.468-5.944V209.403
		c0-4.637,3.759-8.396,8.396-8.396s8.396,3.759,8.396,8.396v243.456l159.493-0.451c0.008,0,0.016,0,0.025,0
		c4.624,0,8.379,3.747,8.396,8.371c0.016,4.641-3.739,8.404-8.371,8.421l-167.914,0.476
		C196.386,469.676,196.378,469.676,196.369,469.676z"/>
	<path d="M357.306,385.241h-62.1c-4.231,0-8.076-2.148-10.298-5.748c-2.074-3.37-2.378-7.445-0.844-11.044l5.887-18.145
		c-3.673,0.984-7.338,1.468-11.02,1.468c-15.882,0-31.296-6.715-42.299-18.423c-10.581-11.249-15.898-25.696-14.972-40.659
		c1.066-17.218,11.192-33.059,27.779-43.459c8.15-5.116,16.144-7.998,24.384-8.716c-2.189-6.252-3.288-13.25-3.288-20.941
		c0-16.841,7.502-32.604,20.572-43.246c13.061-10.638,30.181-14.742,46.997-11.261c21.482,4.456,38.7,21.978,42.849,43.591
		c2.197,11.524,1.566,22.4-1.746,31.862c8.117,0.75,15.964,3.681,24.196,8.921c16.538,10.487,26.59,26.327,27.582,43.464
		c0.869,14.89-4.477,29.263-15.054,40.471c-11.028,11.692-26.459,18.399-42.332,18.399c-3.829,0-8.06-0.607-12.331-1.697
		l7.174,18.35c1.574,3.083,1.377,7.478-0.845,11.077C365.374,383.093,361.528,385.241,357.306,385.241z M301.716,368.449h48.736
		l-13.807-35.273l4.936-4.534c3.017-2.46,7.24-2.648,10.487-0.558l0,0c6.313,4.059,15.168,6.895,21.531,6.895
		c11.266,0,22.244-4.788,30.124-13.135c7.363-7.806,11.093-17.743,10.503-27.975c-0.681-11.667-7.904-22.695-19.825-30.255
		c-11.52-7.33-19.563-7.437-28.123-5.37l-24.999,6.076l16.603-19.653c8.666-10.261,8.363-23.527,6.576-32.85
		c-2.878-15.033-14.84-27.213-29.763-30.312c-12.012-2.493-23.72,0.303-32.985,7.847c-9.142,7.437-14.381,18.452-14.381,30.222
		c0,10.507,2.632,18.952,7.822,25.098l16.554,19.625l-24.95-6.051c-10.331-2.493-18.538-0.992-28.394,5.206
		c-11.77,7.387-19.223,18.702-19.94,30.271c-0.635,10.298,3.075,20.285,10.446,28.131c7.847,8.339,18.801,13.127,30.066,13.127
		c5.969,0,12.184-2.238,18.997-6.838l4.96-3.345l5.461,3.608c3.042,2.288,4.305,6.264,3.148,9.896L301.716,368.449z"/>
	<path d="M137.59,435.617c-3.71,0-7.1-2.468-8.105-6.223c-9.486-35.412-19.235-71.218-28.98-107.015
		c-9.605-35.273-19.206-70.545-28.558-105.437c-1.201-4.477,1.455-9.081,5.936-10.282c4.485-1.226,9.085,1.459,10.282,5.936
		c9.347,34.871,18.944,70.123,28.541,105.371c9.753,35.822,19.506,71.644,28.996,107.08c1.201,4.477-1.459,9.085-5.936,10.282
		C139.037,435.526,138.307,435.617,137.59,435.617z"/>
	<path d="M66.905,174.048c-0.558,0-1.123-0.053-1.693-0.172c-4.542-0.926-7.469-5.362-6.539-9.909l15.054-73.575
		c0.635-3.116,2.98-5.6,6.051-6.424c3.046-0.816,6.342,0.16,8.453,2.538l49.822,56.184c3.079,3.468,2.759,8.777-0.709,11.852
		c-3.476,3.079-8.785,2.751-11.852-0.709l-38.683-43.619l-11.688,57.123C74.309,171.31,70.812,174.048,66.905,174.048z"/>
	<path d="M78.019,149.681c-3.71,0-7.1-2.476-8.105-6.227c-1.201-4.481,1.455-9.085,5.936-10.282l32.44-8.691
		c4.489-1.218,9.081,1.459,10.282,5.936c1.201,4.481-1.455,9.085-5.936,10.282l-32.44,8.691
		C79.466,149.586,78.737,149.681,78.019,149.681z"/>
	<path d="M133.207,503.366c-4.362,0-8.671-1.14-12.553-3.386c-5.825-3.362-9.995-8.798-11.729-15.291L4.617,95.411
		C2.874,88.913,3.764,82.128,7.13,76.298c3.362-5.825,8.794-9.991,15.295-11.733L306.586-0.183
		c6.182-1.664,12.971-0.779,18.801,2.591c5.83,3.366,9.987,8.802,11.725,15.3l16.923,48.485H179.578
		c-4.628,0-8.396,3.767-8.396,8.396v403.007c0,1.648,0.484,3.247,1.402,4.624l6.49,9.732l-39.298,10.544
		C137.602,503.079,135.397,503.366,133.207,503.366z M312.809,15.822c-0.73,0-1.459,0.098-2.189,0.291L26.463,80.861
		c-1.861,0.504-3.669,1.894-4.792,3.833c-1.119,1.943-1.418,4.202-0.836,6.367l104.309,389.282c0.582,2.165,1.968,3.977,3.907,5.1
		c1.947,1.115,4.202,1.427,6.375,0.836l19.211-5.157c-0.164-1.156-0.246-2.337-0.246-3.526V74.589
		c0-13.889,11.298-25.188,25.188-25.188h150.827l-9.331-26.762c-0.763-2.759-2.148-4.571-4.083-5.69
		C315.695,16.203,314.26,15.822,312.809,15.822z"/>
	<path d="M196.369,183.736c-4.637,0-8.396-3.759-8.396-8.396V91.381c0-4.637,3.759-8.396,8.396-8.396s8.396,3.759,8.396,8.396
		v83.959C204.765,179.976,201.006,183.736,196.369,183.736z"/>
	<path d="M196.365,150.152c-1.894,0-3.8-0.64-5.37-1.947c-3.563-2.968-4.042-8.261-1.074-11.823L231.9,86.006
		c2.964-3.554,8.257-4.046,11.823-1.074c3.563,2.968,4.042,8.261,1.074,11.823l-41.979,50.375
		C201.158,149.123,198.772,150.152,196.365,150.152z"/>
	<path d="M246.753,183.736c-2.714,0-5.375-1.312-6.994-3.739l-33.584-50.375c-2.57-3.858-1.529-9.072,2.329-11.643
		c3.858-2.587,9.064-1.537,11.643,2.329l33.584,50.375c2.57,3.858,1.529,9.072-2.329,11.643
		C249.971,183.281,248.352,183.736,246.753,183.736z"/>
	<path d="M456.638,469.2c-4.641,0-8.396-3.755-8.396-8.396v-83.959c0-4.641,3.755-8.396,8.396-8.396s8.396,3.755,8.396,8.396v83.959
		C465.034,465.445,461.279,469.2,456.638,469.2z"/>
	<path d="M414.65,469.2c-1.894,0-3.796-0.64-5.37-1.943c-3.558-2.968-4.042-8.265-1.074-11.831l41.979-50.375
		c2.976-3.558,8.248-4.034,11.831-1.074c3.558,2.968,4.042,8.265,1.074,11.831l-41.979,50.375
		C419.447,468.175,417.061,469.2,414.65,469.2z"/>
	<path d="M439.854,435.617c-2.714,0-5.379-1.312-6.994-3.739l-33.584-50.375c-2.575-3.862-1.533-9.068,2.329-11.643
		c3.87-2.566,9.076-1.533,11.643,2.329l33.584,50.375c2.575,3.862,1.533,9.068-2.329,11.643
		C443.069,435.157,441.453,435.617,439.854,435.617z"/>
</g>
<g>
</g>
<g>
</g>
<g>
</g>
<g>
</g>
<g>
</g>
<g>
</g>
<g>
</g>
<g>
</g>
<g>
</g>
<g>
</g>
<g>
</g>
<g>
</g>
<g>
</g>
<g>
</g>
<g>
</g>
</svg>
